<?xml version="1.0" encoding="UTF-8"?>
<svg version="1.1" xmlns="http://www.w3.org/2000/svg" width="87" height="89">
<path d="M0 0 C28.71 0 57.42 0 87 0 C87 29.37 87 58.74 87 89 C58.29 89 29.58 89 0 89 C0 59.63 0 30.26 0 0 Z " fill="#FCFCFC" transform="translate(0,0)"/>
<path d="M0 0 C11.55 0 23.1 0 35 0 C35 0.99 35 1.98 35 3 C29.06 3.495 29.06 3.495 23 4 C23.30292969 4.78761719 23.60585938 5.57523438 23.91796875 6.38671875 C24.33691406 7.47597656 24.75585938 8.56523437 25.1875 9.6875 C25.64382812 10.87085938 26.10015625 12.05421875 26.5703125 13.2734375 C27.49022855 15.67125147 28.4023329 18.07208469 29.3046875 20.4765625 C31.33292756 25.85580787 33.41943846 31.06643125 36.09375 36.15625 C37.08330003 38.16947248 37.8610358 40.20395882 38.625 42.3125 C39.8461142 46.01729724 39.8461142 46.01729724 42 49 C42 49.99 42 50.98 42 52 C42.66 52 43.32 52 44 52 C44.11214844 51.12601563 44.22429688 50.25203125 44.33984375 49.3515625 C45.00800504 45.95935905 46.0343484 43.46461441 47.5625 40.375 C50.32097281 34.57820931 52.80553804 28.71125607 55.1875 22.75 C55.68648804 21.50935791 55.68648804 21.50935791 56.19555664 20.24365234 C58.32426466 14.88741037 60.23758275 9.48747027 62 4 C60.783125 4.020625 59.56625 4.04125 58.3125 4.0625 C55.08022678 4.06824116 52.15065259 3.78766315 49 3 C49 2.01 49 1.02 49 0 C58.9 0 68.8 0 79 0 C79 0.99 79 1.98 79 3 C78.40614502 3.0515625 77.81229004 3.103125 77.20043945 3.15625 C72.34892166 3.82517915 72.34892166 3.82517915 68.47802734 6.59765625 C67.22005323 8.68339495 66.18267627 10.77692567 65.1875 13 C64.81278564 13.77239014 64.43807129 14.54478027 64.05200195 15.34057617 C62.9963041 17.5451693 61.98893938 19.76480601 61 22 C60.566875 22.96550781 60.13375 23.93101563 59.6875 24.92578125 C57.08410519 31.13935246 55.06956552 37.59315354 53 44 C52.34 44 51.68 44 51 44 C50.896875 44.86625 50.79375 45.7325 50.6875 46.625 C49.95590054 50.21648825 48.68627701 52.7571596 47 56 C45.93214681 58.64211097 44.97099808 61.32104119 44 64 C43.43918417 65.50063049 42.87674144 67.00065419 42.3125 68.5 C41.879375 69.655 41.44625 70.81 41 72 C40.01 72 39.02 72 38 72 C37.76812988 71.41508789 37.53625977 70.83017578 37.29736328 70.22753906 C36.24173511 67.56763039 35.18339618 64.9088084 34.125 62.25 C33.76019531 61.32960937 33.39539062 60.40921875 33.01953125 59.4609375 C32.66503906 58.57148437 32.31054688 57.68203125 31.9453125 56.765625 C31.62062988 55.94868164 31.29594727 55.13173828 30.96142578 54.29003906 C30.048205 52.00425187 30.048205 52.00425187 28.87841797 49.95214844 C28 48 28 48 28 44 C27.34 44 26.68 44 26 44 C25.76925781 43.32195313 25.53851562 42.64390625 25.30078125 41.9453125 C23.29479822 36.2207285 21.01206028 30.85526769 18.22265625 25.47265625 C16.98938358 22.97852974 15.94666342 20.46716486 14.9375 17.875 C14.61007813 17.05773437 14.28265625 16.24046875 13.9453125 15.3984375 C13.3277082 13.831458 12.73775297 12.25322037 12.1796875 10.6640625 C11.29625495 8.45946056 10.55339856 6.80104181 9 5 C6.03753692 3.76777966 3.18642555 3.27234406 0 3 C0 2.01 0 1.02 0 0 Z " fill="#A5252A" transform="translate(4,10)"/>
<path d="M0 0 C9.9 0 19.8 0 30 0 C30 0.99 30 1.98 30 3 C29.40614502 3.0515625 28.81229004 3.103125 28.20043945 3.15625 C23.34892166 3.82517915 23.34892166 3.82517915 19.47802734 6.59765625 C18.22010657 8.68330652 17.18287361 10.77714134 16.1875 13 C15.81351074 13.76876465 15.43952148 14.5375293 15.05419922 15.32958984 C12.4381352 20.78096678 10.09495995 26.32879529 8 32 C7.02329321 34.34409631 6.01256927 36.67109068 5 39 C4.34 38.67 3.68 38.34 3 38 C0.36 43.28 -2.28 48.56 -5 54 C-8 53 -8 53 -9.203125 51.2578125 C-9.54859375 50.55398437 -9.8940625 49.85015625 -10.25 49.125 C-10.60578125 48.42632812 -10.9615625 47.72765625 -11.328125 47.0078125 C-12 45 -12 45 -11 42 C-7 48.625 -7 48.625 -7 52 C-6.34 52 -5.68 52 -5 52 C-4.83177734 50.68902344 -4.83177734 50.68902344 -4.66015625 49.3515625 C-3.99199496 45.95935905 -2.9656516 43.46461441 -1.4375 40.375 C1.32097281 34.57820931 3.80553804 28.71125607 6.1875 22.75 C6.52015869 21.92290527 6.85281738 21.09581055 7.19555664 20.24365234 C9.32426466 14.88741037 11.23758275 9.48747027 13 4 C11.783125 4.020625 10.56625 4.04125 9.3125 4.0625 C6.08022678 4.06824116 3.15065259 3.78766315 0 3 C0 2.01 0 1.02 0 0 Z " fill="#404040" transform="translate(53,10)"/>
<path d="M0 0 C1.32 0 2.64 0 4 0 C3.67 0.66 3.34 1.32 3 2 C2.34 1.67 1.68 1.34 1 1 C1.43828125 1.97453125 1.8765625 2.9490625 2.328125 3.953125 C6.70384051 13.72221907 10.97234061 23.53569052 15.1875 33.375 C15.68604492 34.53805664 16.18458984 35.70111328 16.69824219 36.89941406 C19.84140715 44.24878118 22.93962399 51.61578229 26 59 C25.77948975 58.27135742 25.55897949 57.54271484 25.33178711 56.79199219 C22.91964286 48.82142857 22.91964286 48.82142857 22 45 C25.68565201 48.32555957 27.47754307 52.32564574 29 57 C28.8125 59.875 28.8125 59.875 28 62 C27.67 62.99 27.34 63.98 27 65 C27.495 65.99 27.495 65.99 28 67 C28.66 65.68 29.32 64.36 30 63 C30 64.65 30 66.3 30 68 C28.02 68.495 28.02 68.495 26 69 C25.76812988 68.41508789 25.53625977 67.83017578 25.29736328 67.22753906 C24.24173511 64.56763039 23.18339618 61.9088084 22.125 59.25 C21.76019531 58.32960937 21.39539063 57.40921875 21.01953125 56.4609375 C20.66503906 55.57148437 20.31054688 54.68203125 19.9453125 53.765625 C19.62062988 52.94868164 19.29594727 52.13173828 18.96142578 51.29003906 C18.048205 49.00425187 18.048205 49.00425187 16.87841797 46.95214844 C16 45 16 45 16 41 C15.34 41 14.68 41 14 41 C13.76925781 40.32195313 13.53851563 39.64390625 13.30078125 38.9453125 C11.2957994 33.22358564 9.01483409 27.86029339 6.2265625 22.48046875 C4.57949351 19.14961268 3.24841828 15.72639698 1.921875 12.2578125 C0.95415466 9.75957846 0.95415466 9.75957846 -0.875 6.625 C-2 4 -2 4 -1.1875 1.625 C-0.795625 1.08875 -0.40375 0.5525 0 0 Z " fill="#332C2C" transform="translate(16,13)"/>
<path d="M0 0 C8.58 0 17.16 0 26 0 C24.68 0.33 23.36 0.66 22 1 C22 1.66 22 2.32 22 3 C21.38415039 3.25378418 20.76830078 3.50756836 20.13378906 3.76904297 C17.67051683 5.19007484 17.06621955 6.16093895 15.859375 8.6953125 C15.51132813 9.41074219 15.16328125 10.12617188 14.8046875 10.86328125 C14.45664063 11.60964844 14.10859375 12.35601562 13.75 13.125 C13.38648437 13.87910156 13.02296875 14.63320313 12.6484375 15.41015625 C11.75468731 17.26821586 10.87587625 19.13344818 10 21 C9.34 21 8.68 21 8 21 C7.67 21.66 7.34 22.32 7 23 C7.44146893 19.46824852 8.18527284 16.35252455 9.5 13.0625 C10.96446253 9.3549095 11.58767212 5.95834764 12 2 C8.04 1.67 4.08 1.34 0 1 C0 0.67 0 0.34 0 0 Z " fill="#B51E24" transform="translate(55,11)"/>
<path d="M0 0 C3 1 3 1 4.08398438 2.91992188 C4.41720703 3.76103516 4.75042969 4.60214844 5.09375 5.46875 C5.47917969 6.42088379 5.86460938 7.37301758 6.26171875 8.35400391 C6.67035156 9.39218262 7.07898438 10.43036133 7.5 11.5 C8.38297162 13.68588508 9.26847522 15.87074876 10.15625 18.0546875 C10.61773437 19.19260742 11.07921875 20.33052734 11.5546875 21.50292969 C14.37494387 28.32680674 17.40478009 35.0593434 20.41992188 41.79882812 C26.39556977 55.23306738 26.39556977 55.23306738 25 60 C24.265625 58.28645833 23.53125 56.57291667 22.796875 54.859375 C22.31645752 53.73853516 21.83604004 52.61769531 21.34106445 51.46289062 C20.27137494 48.9670177 19.20226524 46.47089744 18.13354492 43.97460938 C15.56758368 37.98239946 12.99879174 31.9914961 10.41342163 26.00762939 C9.30987861 23.45303962 8.2085128 20.89751383 7.1072998 18.34191895 C6.32267489 16.52357994 5.53489293 14.70660428 4.74707031 12.88964844 C4.26979492 11.78137695 3.79251953 10.67310547 3.30078125 9.53125 C2.87966064 8.55736328 2.45854004 7.58347656 2.0246582 6.58007812 C1.15278412 4.38470873 0.4961499 2.3042575 0 0 Z " fill="#B1B1B1" transform="translate(17,14)"/>
<path d="M0 0 C0.33 0.66 0.66 1.32 1 2 C0.67 2.969375 0.34 3.93875 0 4.9375 C-1.33339097 7.99162848 -1.33339097 7.99162848 0 11 C-0.92203709 13.36522558 -1.91698965 15.70401807 -3 18 C-3.33 16.68 -3.66 15.36 -4 14 C-4.99 16.31 -5.98 18.62 -7 21 C-7.66 21 -8.32 21 -9 21 C-3.57142857 3.57142857 -3.57142857 3.57142857 0 0 Z " fill="#343434" transform="translate(64,24)"/>
<path d="M0 0 C3 1 3 1 4.2902832 3.26904297 C5.64547411 6.46554013 6.99417404 9.66307856 8.3125 12.875 C8.79267578 13.99003906 9.27285156 15.10507812 9.76757812 16.25390625 C10.21166016 17.32253906 10.65574219 18.39117187 11.11328125 19.4921875 C11.52360596 20.47558105 11.93393066 21.45897461 12.35668945 22.47216797 C12.56898193 23.30635254 12.78127441 24.14053711 13 25 C12.34 25.99 11.68 26.98 11 28 C10.7733667 27.42556152 10.5467334 26.85112305 10.31323242 26.25927734 C9.27410659 23.63007443 8.23083916 21.00253364 7.1875 18.375 C6.65286133 17.01955078 6.65286133 17.01955078 6.10742188 15.63671875 C4.59623659 11.83795942 3.06796733 8.13593467 1.23828125 4.4765625 C0 2 0 2 0 0 Z " fill="#A6A6A6" transform="translate(17,14)"/>
<path d="M0 0 C1.32 0 2.64 0 4 0 C3.67 0.66 3.34 1.32 3 2 C2.34 1.67 1.68 1.34 1 1 C1.3609375 1.74765625 1.721875 2.4953125 2.09375 3.265625 C2.5578125 4.25046875 3.021875 5.2353125 3.5 6.25 C4.19609375 7.71179688 4.19609375 7.71179688 4.90625 9.203125 C6 12 6 12 6 16 C5.34 16 4.68 16 4 16 C2.93907266 14.09392715 1.90179899 12.17467254 0.875 10.25 C0.29492188 9.18265625 -0.28515625 8.1153125 -0.8828125 7.015625 C-2 4 -2 4 -1.1796875 1.609375 C-0.79039063 1.07828125 -0.40109375 0.5471875 0 0 Z " fill="#1F1F1F" transform="translate(16,13)"/>
<path d="M0 0 C2 3 2 3 1.625 5.6875 C1.41875 6.450625 1.2125 7.21375 1 8 C0.34 8 -0.32 8 -1 8 C-1.33 9.98 -1.66 11.96 -2 14 C-3.32 14.33 -4.64 14.66 -6 15 C-5.39644592 11.14974121 -4.23227397 8.13898841 -2.4375 4.6875 C-1.98246094 3.80449219 -1.52742188 2.92148437 -1.05859375 2.01171875 C-0.53458984 1.01591797 -0.53458984 1.01591797 0 0 Z " fill="#B22429" transform="translate(56,46)"/>
<path d="M0 0 C2.64521932 2.64521932 3.44542519 5.66171349 4.625 9.125 C4.85445312 9.78371094 5.08390625 10.44242188 5.3203125 11.12109375 C5.88536242 12.74561226 6.44336277 14.37257971 7 16 C6.34 16.66 5.68 17.32 5 18 C-1.20454545 8.25 -1.20454545 8.25 -0.6875 2.5625 C-0.460625 1.716875 -0.23375 0.87125 0 0 Z " fill="#2D2D2D" transform="translate(22,27)"/>
<path d="M0 0 C1.18771723 3.42943519 0.80226223 5.37784675 -0.4375 8.75 C-0.72496094 9.54921875 -1.01242188 10.3484375 -1.30859375 11.171875 C-1.53675781 11.77515625 -1.76492187 12.3784375 -2 13 C-2.66 12.67 -3.32 12.34 -4 12 C-4.66 12.66 -5.32 13.32 -6 14 C-5.625 11.5625 -5.625 11.5625 -5 9 C-4.34 8.67 -3.68 8.34 -3 8 C-2.09656316 6.11736119 -2.09656316 6.11736119 -1.375 3.9375 C-0.98441406 2.83728516 -0.98441406 2.83728516 -0.5859375 1.71484375 C-0.39257812 1.14894531 -0.19921875 0.58304688 0 0 Z " fill="#6E1D20" transform="translate(60,36)"/>
<path d="M0 0 C2.59513109 3.89269663 4.24290607 7.13772011 3.625 11.875 C3.41875 12.57625 3.2125 13.2775 3 14 C1.13591522 11.20387283 0.51163882 9.62830652 -0.1875 6.4375 C-0.36667969 5.65246094 -0.54585937 4.86742188 -0.73046875 4.05859375 C-1 2 -1 2 0 0 Z " fill="#4E3738" transform="translate(38,64)"/>
<path d="M0 0 C2.64836661 3.12988781 4.0048268 6.0193072 5 10 C4.546875 12.1875 4.546875 12.1875 4 14 C3.13395466 12.23494565 2.28251358 10.46271926 1.4375 8.6875 C0.72400391 7.20830078 0.72400391 7.20830078 -0.00390625 5.69921875 C-1 3 -1 3 0 0 Z " fill="#A8A8A8" transform="translate(38,60)"/>
<path d="M0 0 C1.32 0 2.64 0 4 0 C3.67 0.66 3.34 1.32 3 2 C2.34 1.67 1.68 1.34 1 1 C1.33 2.98 1.66 4.96 2 7 C1.01 7.495 1.01 7.495 0 8 C-0.66 6.02 -1.32 4.04 -2 2 C-1.34 1.34 -0.68 0.68 0 0 Z " fill="#131313" transform="translate(16,13)"/>
<path d="M0 0 C3 2 3 2 3.6875 5.125 C3.8421875 6.548125 3.8421875 6.548125 4 8 C3.01 8.495 3.01 8.495 2 9 C0.50178941 5.62902617 0 3.79557881 0 0 Z " fill="#251A1B" transform="translate(34,58)"/>
<path d="M0 0 C2 3 2 3 1.625 5.6875 C1.41875 6.450625 1.2125 7.21375 1 8 C0.34 8 -0.32 8 -1 8 C-1.93065133 5.39417629 -2.14917407 4.35801776 -1.0625 1.75 C-0.711875 1.1725 -0.36125 0.595 0 0 Z " fill="#AB3D41" transform="translate(56,46)"/>
<path d="M0 0 C1.2077558 3.62326739 0.54311128 4.64146369 -1 8 C-1.66 7.01 -2.32 6.02 -3 5 C-1.125 1.125 -1.125 1.125 0 0 Z " fill="#ED1C24" transform="translate(45,73)"/>
<path d="M0 0 C0.99 0.33 1.98 0.66 3 1 C4.1875 4.5625 4.1875 4.5625 5 8 C4.34 8 3.68 8 3 8 C0 2.25 0 2.25 0 0 Z " fill="#9F9F9F" transform="translate(17,14)"/>
</svg>
